<svg xmlns="http://www.w3.org/2000/svg" viewBox="0 0 171.39 61.69"><title>Asset 1</title><g id="Layer_2" data-name="Layer 2"><g id="Layer_1-2" data-name="Layer 1"><path d="M13.41,25.17a4.5,4.5,0,0,1-2.62-.75,3.28,3.28,0,0,1-1.37-1.66H23.63V10.57c-.22-.25-.43-.49-.67-.73A13,13,0,0,0,13.45,5.9,13,13,0,0,0,3.94,9.84,13,13,0,0,0,0,19.35a13,13,0,0,0,3.94,9.51,13,13,0,0,0,9.51,3.94,12.67,12.67,0,0,0,10.14-4.66L16.82,24.3A7.56,7.56,0,0,1,13.41,25.17ZM10.67,14.45a4.36,4.36,0,0,1,5.57,0A4,4,0,0,1,17.68,17H9.18A4.26,4.26,0,0,1,10.67,14.45Z" style="fill:#fff"/><path d="M65.75,19.35a14.18,14.18,0,0,1,1.7-6.9,12.1,12.1,0,0,0-2.1-2.86,13.1,13.1,0,0,0-9.73-3.7A10,10,0,0,0,47.4,9.65Q44.19,5.9,38.13,5.9a13.94,13.94,0,0,0-5.81,1.44H24.72v24H34V18.49a4.1,4.1,0,0,1,4.08-4.08A4,4,0,0,1,41,15.61a3.9,3.9,0,0,1,1.22,2.88V31.37h9.27V18.49a4.1,4.1,0,0,1,4.08-4.08,4,4,0,0,1,2.91,1.2,3.9,3.9,0,0,1,1.22,2.88V31.37H69v-2.8A14,14,0,0,1,65.75,19.35Z" style="fill:#fff"/><path d="M93.8,24.19V14.34H90.7v-7H86.06A10.68,10.68,0,0,0,80.3,5.9a13,13,0,0,0-9.52,3.94,13,13,0,0,0-3.94,9.51,13,13,0,0,0,3.94,9.51,13,13,0,0,0,9.52,3.94,10.1,10.1,0,0,0,5.76-1.44h4ZM83.3,22.33a4,4,0,0,1-3,1.25,4,4,0,0,1-3-1.25,4.23,4.23,0,0,1,0-6,4,4,0,0,1,3-1.25,4,4,0,0,1,3,1.25,4.24,4.24,0,0,1,0,6Z" style="fill:#fff"/><polygon points="111.24 31.37 111.24 25.46 104.95 25.46 111.24 13.55 111.24 7.34 91.79 7.34 91.79 13.25 100.78 13.25 91.26 31.37 111.24 31.37" style="fill:#fff"/><rect x="112.33" width="6.25" height="6.25" style="fill:#fff"/><rect x="112.33" y="7.34" width="6.25" height="24.02" style="fill:#fff"/><path d="M146.44,31.37V28.46a13.88,13.88,0,0,1-3.19-9.06,14.23,14.23,0,0,1,1.74-7,11.38,11.38,0,0,0-2.46-3.06A13.83,13.83,0,0,0,133,5.9a12.21,12.21,0,0,0-5.77,1.44h-7.59v24h9.27V18.49A4.1,4.1,0,0,1,133,14.41a4,4,0,0,1,2.91,1.2,3.9,3.9,0,0,1,1.23,2.88V31.37Z" style="fill:#fff"/><path d="M150.11,35.88a6.86,6.86,0,0,0,5,2.16,6.65,6.65,0,0,0,4.52-1.73,7.1,7.1,0,0,0,2.4-4.23,11.16,11.16,0,0,1-4.13.72,13.14,13.14,0,0,1-9.59-3.92,12.84,12.84,0,0,1-4-9.49A13.49,13.49,0,0,1,157.89,5.9a11.26,11.26,0,0,1,5.81,1.44h7.69V30.93a15.69,15.69,0,0,1-4.78,11.51,16.3,16.3,0,0,1-23,0Zm4.76-19.51a4.13,4.13,0,0,0-1.25,3,4,4,0,0,0,1.25,3,4.17,4.17,0,0,0,3,1.23,4.18,4.18,0,0,0,4.23-4.23,4.16,4.16,0,0,0-1.22-3,4,4,0,0,0-3-1.25A4.12,4.12,0,0,0,154.86,16.38Z" style="fill:#fff"/><path d="M48.55,58.58q.06-.67.25-1.79t.47-2.38q.28-1.26.61-2.54t.65-2.3A10.76,10.76,0,0,1,51,48.41a3.24,3.24,0,0,1,.44-.72,3.87,3.87,0,0,1,.68.1,5.52,5.52,0,0,1,.69.22,5.13,5.13,0,0,1,.6.28,2,2,0,0,1,.42.3,8.39,8.39,0,0,0-.94,1.77,18,18,0,0,0-.74,2.49q1.14-1.21,2-2.3a17.18,17.18,0,0,0,1.58-2.41.78.78,0,0,1,.47-.16,1.92,1.92,0,0,1,.62,0,.76.76,0,0,1,.44.25A6.17,6.17,0,0,0,57,50.5,3,3,0,0,0,57.45,52a1.77,1.77,0,0,1-.26.56,6.29,6.29,0,0,1-.57.79,3.65,3.65,0,0,1-1.18-.79,3.78,3.78,0,0,1-.82-1.17A15.79,15.79,0,0,0,52.91,53a7.85,7.85,0,0,0-1.15,1.72A9.74,9.74,0,0,0,51,56.86a27.46,27.46,0,0,0-.48,2.79,1.74,1.74,0,0,1-.51-.11,3.94,3.94,0,0,1-.6-.26,3.66,3.66,0,0,1-.55-.34A1.09,1.09,0,0,1,48.55,58.58Z" style="fill:#f7941d"/><path d="M65.76,47.95a7.94,7.94,0,0,1-.29,2.49,5.4,5.4,0,0,1-1,1.89,8.62,8.62,0,0,1-1.75,1.55,20.09,20.09,0,0,1-2.46,1.42c0,.09,0,.19,0,.29s0,.2,0,.31a4.41,4.41,0,0,0,.1.62,2.36,2.36,0,0,0,.21.58,1.18,1.18,0,0,0,.36.42.8.8,0,0,0,.54.12,2.85,2.85,0,0,0,1.19-.38,6.26,6.26,0,0,0,1.08-.78,9.32,9.32,0,0,0,.93-1q.43-.51.76-.94a5.15,5.15,0,0,1,.42.36,11.08,11.08,0,0,1-2.06,2.48,6.41,6.41,0,0,1-2.23,1.36A3.79,3.79,0,0,1,59,57.85a3.4,3.4,0,0,1-1.09-2.27,7.3,7.3,0,0,1,.1-1.94,9.38,9.38,0,0,1,.57-1.95,10.62,10.62,0,0,1,.95-1.81,9.07,9.07,0,0,1,1.23-1.52,6.6,6.6,0,0,1,1.41-1.07,3.76,3.76,0,0,1,1.5-.48A3.09,3.09,0,0,1,65.76,47.95Zm-1.51.9a3.41,3.41,0,0,0-1.24.62,5.36,5.36,0,0,0-1.15,1.21,8.61,8.61,0,0,0-.93,1.7,9.45,9.45,0,0,0-.58,2,10.22,10.22,0,0,0,2.85-2.53A4.71,4.71,0,0,0,64.24,48.84Z" style="fill:#f7941d"/><path d="M68.07,48.46a1.45,1.45,0,0,1-.26-.57,3.8,3.8,0,0,1-.16-.76,7.42,7.42,0,0,0,1.16,0l1-.09q.29-.71.63-1.42c.23-.47.45-.9.67-1.29a11.17,11.17,0,0,1,.63-1,2.78,2.78,0,0,1,.47-.54,2.77,2.77,0,0,1,.59,0,7,7,0,0,1,.74.14,7.2,7.2,0,0,1,.69.21,1.25,1.25,0,0,1,.44.24q-.61.93-1,1.71t-.92,1.79l.93-.08a6.84,6.84,0,0,0,.95-.15.81.81,0,0,1,.21.27,1,1,0,0,1,.1.35,7.61,7.61,0,0,1-2.69.68q-.47,1.16-.83,2.29c-.23.76-.42,1.48-.57,2.17a18.44,18.44,0,0,0-.32,2,8.79,8.79,0,0,0,0,1.63q.09,1,.86,1.06a5.25,5.25,0,0,0,1.28-.46,4.4,4.4,0,0,0,1-.74.91.91,0,0,1,.19.33,2.37,2.37,0,0,1-.43.52c-.2.2-.43.4-.67.6a7.38,7.38,0,0,1-.72.51,2,2,0,0,1-.53.25,3.1,3.1,0,0,1-1.17-.13,4.91,4.91,0,0,1-1.09-.48,3.41,3.41,0,0,1-.84-.7,1.47,1.47,0,0,1-.37-.81,8.2,8.2,0,0,1,0-1.4q.07-.85.26-1.86t.46-2.12c.18-.74.38-1.48.61-2.21Z" style="fill:#f7941d"/><path d="M82.66,46.68a2.24,2.24,0,0,1,.55,0,2.88,2.88,0,0,1,.58.16,2.37,2.37,0,0,1,.45.23c.12.08.19.16.19.24-.25.67-.47,1.34-.68,2s-.37,1.32-.5,1.93A16,16,0,0,0,83,53a8,8,0,0,0,0,1.37,3.58,3.58,0,0,0,.23,1.05,1,1,0,0,0,.51.57,2.4,2.4,0,0,1-.69.36,3.05,3.05,0,0,1-.77.18q-1.24.11-1.39-1.59a10.79,10.79,0,0,1,.55-3.66,14.28,14.28,0,0,1-2,3.81,7.12,7.12,0,0,1-1.15,1.26,3,3,0,0,1-1.11.64,1.61,1.61,0,0,1-1.44-.65,3.43,3.43,0,0,1-.7-1.92,7.69,7.69,0,0,1,.31-2.77,12.4,12.4,0,0,1,1.18-2.77,10,10,0,0,1,1.69-2.21,3.16,3.16,0,0,1,1.88-1,1.89,1.89,0,0,1,.54.23,4.51,4.51,0,0,1,.59.43,4.17,4.17,0,0,1,.49.52,1.22,1.22,0,0,1,.25.47,4.15,4.15,0,0,0-1.81,1.06,9.34,9.34,0,0,0-1.61,2,10.78,10.78,0,0,0-1.09,2.39,6,6,0,0,0-.3,2.31.52.52,0,0,0,.37.52A3.21,3.21,0,0,0,79,54.32a22.09,22.09,0,0,0,1.84-3.27l.43-1q.24-.53.49-1.11t.49-1.16Q82.46,47.23,82.66,46.68Z" style="fill:#f7941d"/><path d="M86.14,54.16c0-.14,0-.31,0-.52s0-.49.06-.84.07-.77.13-1.27.13-1.1.22-1.8c0-.16.07-.41.15-.75A9,9,0,0,1,87,47.88a7.25,7.25,0,0,1,.55-1.15,2.4,2.4,0,0,1,.83-.86,4,4,0,0,1,1.08.38,3.46,3.46,0,0,1,1.19.95,8.07,8.07,0,0,0-.77,1.27,12.23,12.23,0,0,0-.53,1.3c-.15.45-.29.91-.41,1.38s-.26,1-.41,1.49-.24.9-.34,1.36a4.77,4.77,0,0,0-.12,1.2c0,.28,0,.47,0,.59s0,.18-.11.18a1.24,1.24,0,0,1-.38-.08,2.19,2.19,0,0,1-.59-.3,2.6,2.6,0,0,1-.57-.56A1.62,1.62,0,0,1,86.14,54.16Zm3.5-10.34a2,2,0,0,1,0-.42.89.89,0,0,1-.23-.33,1.3,1.3,0,0,1-.12-.41,3.66,3.66,0,0,1,0-.57c0-.24,0-.5.08-.78s.09-.57.15-.88.13-.59.2-.84a2,2,0,0,1,.69.09,5.22,5.22,0,0,1,.85.32,5.63,5.63,0,0,1,.8.46,3.26,3.26,0,0,1,.58.49c-.15.18-.36.44-.6.76s-.49.66-.72,1-.44.68-.63,1a4.88,4.88,0,0,0-.36.65.9.9,0,0,1-.51-.2A.56.56,0,0,1,89.64,43.82Z" style="fill:#f7941d"/><path d="M91.52,53.75a12.09,12.09,0,0,1,.23-2.88q.32-1.87,1-4.37,1.08-4,2.1-6.69a20.46,20.46,0,0,1,2.09-4.24,2.78,2.78,0,0,1,.7.17c.28.1.55.21.83.33a6.4,6.4,0,0,1,.74.39,1.75,1.75,0,0,1,.44.33,28.21,28.21,0,0,0-2.74,4.82,37.36,37.36,0,0,0-2,5.79,45.85,45.85,0,0,0-1,5,16.65,16.65,0,0,0-.18,3.66c0,.26,0,.42,0,.48a.77.77,0,0,0,0,.18,1.83,1.83,0,0,1-.57-.11.59.59,0,0,1-.32-.25,1.34,1.34,0,0,0-.28-.31,2.55,2.55,0,0,0-.4-.3,1.23,1.23,0,0,1-.41-.69A5.81,5.81,0,0,1,91.52,53.75Z" style="fill:#f7941d"/><path d="M97,53.2c0-.14,0-.31,0-.52s0-.49.05-.84.07-.77.13-1.27.13-1.1.22-1.8c0-.15.07-.41.15-.75a9,9,0,0,1,.33-1.1,7.22,7.22,0,0,1,.55-1.15,2.37,2.37,0,0,1,.84-.86,4,4,0,0,1,1.07.38,3.49,3.49,0,0,1,1.19.95,8.09,8.09,0,0,0-.78,1.27,12.23,12.23,0,0,0-.53,1.3c-.15.45-.29.9-.41,1.38s-.26,1-.41,1.49-.24.9-.34,1.36a4.87,4.87,0,0,0-.12,1.2c0,.28,0,.47,0,.59s0,.18-.11.18a1.24,1.24,0,0,1-.37-.08,2.13,2.13,0,0,1-.59-.3,2.49,2.49,0,0,1-.57-.56A1.6,1.6,0,0,1,97,53.2Zm3.5-10.34a2,2,0,0,1,0-.42.87.87,0,0,1-.23-.32,1.31,1.31,0,0,1-.12-.41,3.67,3.67,0,0,1,0-.57c0-.24,0-.5.08-.78s.09-.57.15-.88.13-.59.2-.84a2,2,0,0,1,.69.09,5.22,5.22,0,0,1,.85.32,5.53,5.53,0,0,1,.8.46,3.26,3.26,0,0,1,.58.49c-.15.18-.36.44-.6.76s-.49.66-.72,1-.44.68-.63,1a4.63,4.63,0,0,0-.36.66.91.91,0,0,1-.51-.2A.55.55,0,0,1,100.47,42.86Z" style="fill:#f7941d"/><path d="M105.23,42.81a2.45,2.45,0,0,1,1.19.71,4.31,4.31,0,0,1,.9,1.32,11.33,11.33,0,0,1-.65,1.56q-.45.92-.9,1.87t-.8,1.81a4.29,4.29,0,0,0-.38,1.39q.33-.42.73-1c.27-.37.53-.74.78-1.11l.71-1c.22-.3.39-.53.52-.68l.94-1.16a16.25,16.25,0,0,1,1.15-1.26,9.83,9.83,0,0,1,1.24-1,2.55,2.55,0,0,1,1.19-.49,1.35,1.35,0,0,1,1,.31,3.47,3.47,0,0,1,.71.78s-.05.08-.16.14a2,2,0,0,0-.45.49,9.08,9.08,0,0,0-.62,1.2c-.23.51-.44,1-.64,1.63a13,13,0,0,0-.48,1.77,5.8,5.8,0,0,0-.11,1.6,1.18,1.18,0,0,0,.21.72.55.55,0,0,0,.44.12,1.38,1.38,0,0,0,.52-.16,1.26,1.26,0,0,1,.43-.15.35.35,0,0,1,.17.18.8.8,0,0,1,.08.26,3.64,3.64,0,0,1-.41.36c-.16.12-.33.24-.5.35a4.71,4.71,0,0,1-.52.28,1.48,1.48,0,0,1-.46.13,2.62,2.62,0,0,1-1.11-.1,1.69,1.69,0,0,1-.71-.46,1.91,1.91,0,0,1-.4-.74,4.77,4.77,0,0,1-.18-.94,4.22,4.22,0,0,1,0-.62,5.39,5.39,0,0,1,.11-.83q.1-.48.29-1.16c.13-.45.3-1,.5-1.63a4.82,4.82,0,0,0-.59.37,6.05,6.05,0,0,0-1.15,1.1q-1,1.13-1.76,2.21t-1.55,2.4c-.29.5-.55.93-.78,1.28a2.62,2.62,0,0,1-.59.71,1.69,1.69,0,0,1-.78-.71,4.93,4.93,0,0,1-.44-1,6.17,6.17,0,0,1,0-1.11q.07-.68.21-1.51c.1-.56.23-1.14.39-1.76s.35-1.23.55-1.85a24,24,0,0,1,1.31-3.31A5.29,5.29,0,0,1,105.23,42.81Z" style="fill:#f7941d"/><path d="M110.86,60.41a.42.42,0,0,1,.07-.26l.19-.25a5.49,5.49,0,0,0,.51.35,3.5,3.5,0,0,0,.39.2,1,1,0,0,0,.36.08l.44,0a4.45,4.45,0,0,0,2.22-.83,7.51,7.51,0,0,0,1.87-2,13.87,13.87,0,0,0,1.47-3.07,26.6,26.6,0,0,0,1-4c-.17.2-.38.42-.62.67s-.51.48-.78.71-.54.43-.81.63a4.9,4.9,0,0,1-.69.43,1.6,1.6,0,0,1-.75-.27,2.7,2.7,0,0,1-.64-.6,3.19,3.19,0,0,1-.47-.85,4,4,0,0,1-.23-1,5.49,5.49,0,0,1,.17-1.86,10,10,0,0,1,.72-1.92,10.78,10.78,0,0,1,1.15-1.82,10.35,10.35,0,0,1,1.46-1.54A8.61,8.61,0,0,1,119.5,42a4.41,4.41,0,0,1,1.65-.51,1.87,1.87,0,0,1,1.23.23,2,2,0,0,1,.68,1.08,1.33,1.33,0,0,0-.65-.08,2.57,2.57,0,0,0-1.24.55,9,9,0,0,0-1.37,1.27,16.07,16.07,0,0,0-1.34,1.74,15.42,15.42,0,0,0-1.13,2,12.4,12.4,0,0,0-.75,1.92,4.39,4.39,0,0,0-.22,1.64.46.46,0,0,0,0,.19.07.07,0,0,0,.07,0,1.17,1.17,0,0,0,.54-.28,9.7,9.7,0,0,0,.75-.66c.28-.26.56-.57.86-.91s.57-.69.83-1a15.87,15.87,0,0,0,1.58-2.63,16.7,16.7,0,0,0,1.06-2.76,4.61,4.61,0,0,1,1.12.11,1.75,1.75,0,0,1,.7.28q-.62,1.86-1,3.12c-.25.84-.45,1.58-.62,2.23q-.47,1.71-.89,3.12t-.88,2.62a18.36,18.36,0,0,1-1,2.26,15.87,15.87,0,0,1-1.31,2,4.68,4.68,0,0,1-.81.85,6.74,6.74,0,0,1-1,.65,5.81,5.81,0,0,1-1,.43,4,4,0,0,1-.9.19,5.21,5.21,0,0,1-1.13,0,5.58,5.58,0,0,1-1.1-.25,4.11,4.11,0,0,1-.9-.43A1.84,1.84,0,0,1,110.86,60.41Z" style="fill:#f7941d"/></g></g></svg>